FILE "PGA European Tour Golf (Europe) (Fr,Es,It) (Alt) (Track 1).bin" BINARY
  TRACK 01 MODE2/2352
    INDEX 01 00:00:00
FILE "PGA European Tour Golf (Europe) (Fr,Es,It) (Alt) (Track 2).bin" BINARY
  TRACK 02 AUDIO
    INDEX 00 00:00:00
    INDEX 01 00:02:00
FILE "PGA European Tour Golf (Europe) (Fr,Es,It) (Alt) (Track 3).bin" BINARY
  TRACK 03 AUDIO
    INDEX 00 00:00:00
    INDEX 01 00:02:00
